<?xml version="1.0" encoding="UTF-8" standalone="no"?> <svg xmlns="http://www.w3.org/2000/svg" version="1.0" width="2872.000000pt" height="1291.000000pt" viewBox="0 0 2872.000000 1291.000000" preserveAspectRatio="xMidYMid meet"><metadata> Created by potrace 1.16, written by Peter Selinger 2001-2019 </metadata><g transform="translate(0.000000,1291.000000) scale(0.100000,-0.100000)" fill="#000000" stroke="none"><path d="M13887 12617 c-356 -160 -644 -294 -640 -298 5 -4 71 -25 148 -46 l140 -40 3 -357 2 -356 -36 -37 c-52 -51 -64 -88 -64 -192 l0 -90 33 -25 c65 -50 114 -43 192 25 l35 31 0 -35 c0 -20 2 -41 5 -49 3 -8 -9 -21 -31 -33 -100 -54 -155 -205 -94 -260 19 -17 18 -18 -23 -50 -79 -61 -117 -133 -117 -224 0 -67 26 -116 75 -141 40 -20 39 -19 34 -24 -2 -2 -56 -12 -119 -21 -191 -28 -316 -84 -507 -227 -130 -97 -262 -231 -384 -388 -207 -269 -482 -580 -772 -877 -121 -123 -176 -186 -171 -195 4 -7 20 -29 36 -49 l28 -37 -85 -118 c-257 -361 -351 -521 -349 -594 2 -52 62 -194 125 -295 141 -226 351 -470 591 -690 236 -216 268 -249 268 -276 0 -12 -20 -57 -45 -99 -25 -43 -53 -108 -63 -147 -17 -67 -19 -70 -41 -61 -16 5 -33 4 -52 -6 -25 -12 -30 -12 -45 5 -17 19 -78 27 -88 11 -2 -4 -8 -84 -11 -177 l-7 -170 33 -49 c19 -28 54 -64 79 -81 25 -17 46 -40 48 -51 2 -11 -180 -1259 -403 -2774 -223 -1515 -405 -2762 -405 -2772 0 -12 12 -17 50 -20 46 -3 50 -1 55 22 3 14 205 1242 450 2730 245 1488 448 2717 451 2731 5 24 11 27 77 38 90 15 164 48 200 90 32 39 33 36 7 -76 -33 -141 -77 -412 -125 -771 -76 -571 -132 -860 -214 -1110 -17 -52 -31 -99 -31 -106 0 -13 65 -77 125 -123 116 -88 339 -193 603 -283 112 -39 152 -57 148 -67 -3 -7 -10 -115 -16 -239 -11 -223 -10 -309 20 -1204 5 -157 6 -330 2 -385 l-7 -100 -37 -3 c-20 -2 -51 4 -67 13 -24 12 -36 13 -51 5 -17 -9 -19 -17 -13 -53 12 -62 8 -198 -7 -243 -7 -21 -21 -49 -32 -61 l-20 -22 22 -36 c14 -23 28 -34 37 -31 8 3 32 3 54 0 33 -6 38 -10 34 -28 -66 -302 -75 -327 -161 -443 -72 -98 -93 -149 -78 -191 13 -36 64 -52 189 -59 83 -5 113 -2 178 16 89 24 187 67 243 105 21 14 48 26 59 26 11 0 36 5 55 10 l36 10 23 137 c13 76 37 180 53 232 56 185 61 317 17 484 l-22 85 21 139 c12 76 43 228 67 338 149 658 163 731 190 960 8 71 15 194 15 273 0 132 1 143 18 138 64 -20 440 -33 570 -20 l61 7 7 68 7 69 66 0 c177 0 466 52 626 112 l90 33 0 -240 c0 -210 3 -254 23 -353 64 -315 162 -511 455 -907 69 -93 148 -206 174 -250 53 -89 106 -223 121 -301 8 -49 7 -55 -25 -105 -47 -75 -67 -149 -66 -244 1 -99 24 -170 104 -324 58 -111 89 -203 89 -267 0 -28 5 -34 52 -54 48 -21 60 -22 153 -14 l100 9 -3 110 c-3 111 2 155 16 155 5 0 57 -32 118 -70 140 -90 281 -162 369 -189 191 -59 521 -39 538 32 3 12 9 43 12 69 l7 48 -46 20 c-26 11 -68 34 -94 52 -128 86 -409 347 -476 442 -63 89 -141 236 -124 236 7 0 30 5 51 11 50 13 49 43 -2 112 -53 71 -69 105 -91 194 -10 42 -26 83 -34 91 -20 20 -44 8 -120 -60 l-55 -49 -25 43 c-41 70 -71 145 -120 298 -113 348 -297 1196 -370 1696 l-6 41 73 13 c233 41 676 243 894 406 l32 24 -66 158 c-628 1516 -930 2662 -905 3437 l2 60 55 29 c52 27 132 85 217 157 l37 32 68 -55 c96 -77 152 -114 240 -155 95 -45 146 -48 223 -12 222 104 675 587 1121 1196 l98 134 128 -88 c319 -217 298 -205 338 -197 20 3 77 33 128 65 51 33 126 80 168 105 l76 45 58 150 c62 160 79 244 52 255 -12 4 -13 12 -6 37 5 18 14 81 19 141 16 180 -13 301 -95 401 l-34 42 50 17 c27 10 49 22 49 26 0 18 -103 99 -169 134 -80 42 -202 76 -271 76 -71 0 -138 -24 -181 -65 -42 -42 -72 -41 -91 1 -14 30 -42 31 -62 2 -15 -21 -14 -24 8 -48 13 -14 36 -43 50 -64 l26 -39 -48 -32 c-67 -45 -145 -134 -179 -203 -23 -46 -29 -73 -31 -143 -4 -87 0 -102 55 -226 4 -9 -7 -13 -39 -13 -54 0 -96 -22 -225 -119 -54 -41 -210 -158 -348 -261 -290 -216 -469 -357 -611 -481 -94 -82 -102 -87 -117 -71 -16 15 -14 19 19 53 l36 37 -34 64 c-19 34 -82 140 -141 235 -192 309 -293 501 -418 793 -69 161 -149 281 -269 401 -79 80 -221 189 -245 189 -3 0 -73 32 -154 71 l-149 71 43 42 c63 63 79 156 54 301 -10 59 -9 64 15 99 14 21 27 59 31 89 7 54 -7 131 -25 142 -6 4 -4 17 5 35 28 55 13 163 -31 211 -11 12 -12 22 -4 43 22 58 4 163 -36 207 -13 15 -17 39 -18 116 -1 90 -4 105 -39 188 -57 132 -99 257 -90 265 4 4 150 69 323 145 422 185 443 195 439 199 -7 7 -1507 336 -1526 335 -10 0 -309 -132 -666 -292z m-104 -447 c105 -28 200 -53 210 -56 16 -5 18 -12 12 -52 -5 -37 -17 -58 -59 -103 -35 -37 -58 -73 -69 -109 -19 -57 -23 -165 -7 -175 6 -3 -4 -18 -21 -33 -66 -55 -97 -172 -64 -236 14 -27 14 -30 -5 -43 -11 -8 -33 -37 -49 -65 l-29 -51 -12 44 c-29 113 -62 185 -98 211 -16 12 -17 41 -14 366 2 193 5 352 8 352 2 0 91 -23 197 -50z m-1555 -4151 c120 -105 385 -258 562 -324 41 -15 78 -30 81 -34 11 -10 -10 -258 -30 -375 -11 -61 -39 -176 -62 -256 -22 -80 -53 -193 -68 -252 l-28 -108 -16 80 c-13 66 -43 135 -180 412 -165 333 -266 503 -382 647 l-55 69 34 53 c64 98 86 129 92 129 3 0 27 -18 52 -41z"></path><path d="M27499 7106 c-228 -63 -386 -287 -365 -518 30 -326 360 -533 681 -426 154 51 279 184 321 343 19 68 17 190 -2 256 -50 169 -173 292 -343 343 -65 19 -225 20 -292 2z m283 -144 c65 -29 139 -100 174 -169 27 -53 29 -67 29 -163 0 -95 -3 -111 -28 -162 -60 -122 -159 -188 -293 -196 -97 -5 -155 11 -226 63 -187 137 -190 442 -4 586 15 12 53 33 85 46 72 30 190 28 263 -5z"></path><path d="M27488 6863 l-48 -4 0 -235 0 -234 75 0 75 0 0 86 0 87 36 -6 c49 -8 60 -20 74 -80 21 -88 20 -87 114 -87 l84 0 -25 88 c-18 67 -31 94 -56 118 l-32 30 30 15 c16 9 39 31 49 50 17 32 18 39 5 79 -8 24 -25 51 -39 62 -46 33 -169 44 -342 31z"></path><path d="M21350 6569 c-683 -62 -1264 -464 -1559 -1079 -108 -226 -162 -434 -182 -707 -45 -590 156 -1136 571 -1554 148 -149 293 -254 475 -344 244 -121 447 -175 728 -195 499 -35 967 110 1347 417 96 77 268 256 341 353 205 273 328 593 370 959 15 136 7 446 -16 571 -91 501 -372 938 -799 1245 -50 36 -157 98 -237 138 -328 166 -668 230 -1039 196z m470 -789 c438 -114 778 -489 845 -930 51 -331 -31 -682 -216 -930 -219 -293 -503 -447 -859 -466 -441 -23 -872 243 -1088 671 -126 251 -156 587 -77 860 122 419 499 746 940 815 105 16 358 5 455 -20z"></path><path d="M820 4630 l0 -1870 365 0 365 0 2 1215 3 1214 770 -1214 769 -1215 343 0 343 0 0 1870 0 1870 -360 0 -360 0 -2 -1181 -3 -1182 -765 1182 -765 1181 -352 0 -353 0 0 -1870z"></path><path d="M4400 4630 l0 -1870 1010 0 1010 0 0 330 0 330 -645 0 -645 0 0 460 0 460 645 0 645 0 0 330 0 330 -645 0 -645 0 0 420 0 420 645 0 645 0 0 330 0 330 -1010 0 -1010 0 0 -1870z"></path><path d="M6731 6158 c55 -189 299 -1029 542 -1868 l443 -1525 294 -3 295 -2 309 1145 c171 630 313 1145 316 1145 3 0 140 -498 303 -1107 164 -610 302 -1125 308 -1145 l10 -38 297 0 297 0 458 1583 c252 870 495 1711 541 1870 l83 287 -380 -2 -380 -3 -303 -1195 c-166 -657 -304 -1188 -308 -1180 -3 8 -150 533 -326 1165 -177 633 -326 1165 -331 1183 l-11 32 -258 0 c-238 0 -258 -1 -262 -18 -46 -175 -663 -2370 -665 -2368 -3 2 -140 539 -307 1192 l-302 1189 -381 3 -381 2 99 -342z"></path><path d="M17290 6170 l0 -330 350 0 350 0 0 -1540 0 -1540 370 0 370 0 0 1540 0 1540 350 0 350 0 0 330 0 330 -1070 0 -1070 0 0 -330z"></path><path d="M23900 4630 l0 -1870 365 0 365 0 2 1217 3 1217 770 -1217 770 -1217 343 0 342 0 0 1870 0 1870 -360 0 -360 0 -2 -1180 -3 -1180 -764 1180 -763 1180 -354 0 -354 0 0 -1870z"></path></g></svg> 